<svg width="79" height="74" viewBox="0 0 79 74" fill="none" xmlns="http://www.w3.org/2000/svg">
<circle cx="60.6096" cy="7.75238" r="7.75238" fill="#8D7CE5" fill-opacity="0.7"/>
<path d="M26.0762 66.2476C26.0762 70.5291 22.6053 74 18.3238 74C14.0423 74 10.5714 70.5291 10.5714 66.2476C10.5714 61.9661 14.0423 58.4952 18.3238 58.4952C22.6053 58.4952 26.0762 61.9661 26.0762 66.2476Z" fill="#7A69D2" fill-opacity="0.8"/>
<g filter="url(#filter0_d_204_2467)">
<path d="M69.8235 12.2884C77.3433 19.1651 76.1035 37.8412 70.1523 37.1559C64.2012 36.4706 21.9087 24.8613 22.8358 16.8098C23.6823 9.45836 37.8683 6.39875 42.1807 5.91305C46.4932 5.42734 62.3037 5.41166 69.8235 12.2884Z" fill="#2CA491" fill-opacity="0.8"/>
</g>
<g filter="url(#filter1_d_204_2467)">
<path d="M11.2641 9.15225C17.2354 0.89514 35.9307 -0.00954318 35.9307 5.98093C35.9307 11.9714 29.2355 55.3143 21.1308 55.3143C13.7308 55.3143 9.06851 41.5714 8.09269 37.3428C7.11687 33.1143 5.29271 17.4094 11.2641 9.15225Z" fill="#AB9EED" fill-opacity="0.7"/>
</g>
<circle cx="7.75238" cy="19.7333" r="7.75238" fill="#73D7C7" fill-opacity="0.7"/>
<g filter="url(#filter2_d_204_2467)">
<path d="M12.3021 63.2298C4.57842 56.5828 5.25481 37.8779 11.2239 38.3835C14.3044 38.6444 27.1474 41.5218 38.7619 45.3556L44.4 52.1524L45.1048 47.5714C53.2619 50.6887 59.3987 54.1465 59.1321 57.2943C58.5076 64.6679 44.4203 68.1536 40.1244 68.7691C35.8286 69.3845 20.0258 69.8767 12.3021 63.2298Z" fill="#3BCAB3" fill-opacity="0.8"/>
</g>
<circle cx="71.181" cy="54.9714" r="7.75238" fill="#69BDAF" fill-opacity="0.8"/>
<g filter="url(#filter3_d_204_2467)">
<path d="M66.9525 64.4858C60.9811 72.7429 42.2858 73.6476 42.2858 67.6571C42.2858 61.6666 48.981 18.3238 57.0858 18.3238C64.4858 18.3238 69.148 32.0666 70.1239 36.2952C71.0997 40.5238 72.9238 56.2287 66.9525 64.4858Z" fill="#6048DE" fill-opacity="0.8"/>
</g>
<defs>
<filter id="filter0_d_204_2467" x="22.8208" y="5.7287" width="52.2245" height="31.4456" filterUnits="userSpaceOnUse" color-interpolation-filters="sRGB">
<feFlood flood-opacity="0" result="BackgroundImageFix"/>
<feColorMatrix in="SourceAlpha" type="matrix" values="0 0 0 0 0 0 0 0 0 0 0 0 0 0 0 0 0 0 127 0" result="hardAlpha"/>
<feOffset/>
<feColorMatrix type="matrix" values="0 0 0 0 0 0 0 0 0 0 0 0 0 0 0 0 0 0 0.25 0"/>
<feBlend mode="normal" in2="BackgroundImageFix" result="effect1_dropShadow_204_2467"/>
<feBlend mode="normal" in="SourceGraphic" in2="effect1_dropShadow_204_2467" result="shape"/>
</filter>
<filter id="filter1_d_204_2467" x="7.04761" y="2.11426" width="28.8832" height="53.2" filterUnits="userSpaceOnUse" color-interpolation-filters="sRGB">
<feFlood flood-opacity="0" result="BackgroundImageFix"/>
<feColorMatrix in="SourceAlpha" type="matrix" values="0 0 0 0 0 0 0 0 0 0 0 0 0 0 0 0 0 0 127 0" result="hardAlpha"/>
<feOffset/>
<feColorMatrix type="matrix" values="0 0 0 0 0 0 0 0 0 0 0 0 0 0 0 0 0 0 0.25 0"/>
<feBlend mode="normal" in2="BackgroundImageFix" result="effect1_dropShadow_204_2467"/>
<feBlend mode="normal" in="SourceGraphic" in2="effect1_dropShadow_204_2467" result="shape"/>
</filter>
<filter id="filter2_d_204_2467" x="6.62708" y="38.3734" width="52.5134" height="30.7297" filterUnits="userSpaceOnUse" color-interpolation-filters="sRGB">
<feFlood flood-opacity="0" result="BackgroundImageFix"/>
<feColorMatrix in="SourceAlpha" type="matrix" values="0 0 0 0 0 0 0 0 0 0 0 0 0 0 0 0 0 0 127 0" result="hardAlpha"/>
<feOffset/>
<feColorMatrix type="matrix" values="0 0 0 0 0 0 0 0 0 0 0 0 0 0 0 0 0 0 0.25 0"/>
<feBlend mode="normal" in2="BackgroundImageFix" result="effect1_dropShadow_204_2467"/>
<feBlend mode="normal" in="SourceGraphic" in2="effect1_dropShadow_204_2467" result="shape"/>
</filter>
<filter id="filter3_d_204_2467" x="42.2858" y="18.3238" width="28.8832" height="53.2" filterUnits="userSpaceOnUse" color-interpolation-filters="sRGB">
<feFlood flood-opacity="0" result="BackgroundImageFix"/>
<feColorMatrix in="SourceAlpha" type="matrix" values="0 0 0 0 0 0 0 0 0 0 0 0 0 0 0 0 0 0 127 0" result="hardAlpha"/>
<feOffset/>
<feColorMatrix type="matrix" values="0 0 0 0 0 0 0 0 0 0 0 0 0 0 0 0 0 0 0.25 0"/>
<feBlend mode="normal" in2="BackgroundImageFix" result="effect1_dropShadow_204_2467"/>
<feBlend mode="normal" in="SourceGraphic" in2="effect1_dropShadow_204_2467" result="shape"/>
</filter>
</defs>
</svg>
