<svg width="40" height="40" viewBox="0 0 40 40" fill="none" xmlns="http://www.w3.org/2000/svg">
<path d="M33.2541 13.1999C33.2744 13.4937 33.2744 13.7876 33.2744 14.0842C33.2744 23.1207 26.3951 33.5425 13.8161 33.5425V33.5371C10.1002 33.5425 6.46149 32.4781 3.33331 30.4712C3.87363 30.5362 4.41666 30.5687 4.96105 30.5701C8.04047 30.5728 11.0319 29.5395 13.4545 27.6369C10.5281 27.5814 7.96193 25.6733 7.06546 22.8877C8.09058 23.0855 9.14684 23.0448 10.153 22.7699C6.96254 22.1253 4.66719 19.3222 4.66719 16.0667C4.66719 16.0369 4.66719 16.0085 4.66719 15.98C5.61783 16.5095 6.68222 16.8034 7.77099 16.8359C4.76604 14.8276 3.83978 10.8301 5.65439 7.70459C9.12653 11.9771 14.2494 14.5744 19.7488 14.8493C19.1976 12.474 19.9506 9.98505 21.7272 8.31533C24.4817 5.72613 28.8137 5.85884 31.4029 8.6119C32.9345 8.30992 34.4024 7.74793 35.7458 6.95167C35.2353 8.53471 34.1668 9.87942 32.7395 10.7339C34.095 10.5741 35.4194 10.2112 36.6667 9.65733C35.7485 11.0332 34.592 12.2316 33.2541 13.1999Z" fill="white"/>
</svg>
